/* XPM */
static char *result[] = {
/* columns rows colors chars-per-pixel */
"32 32 177 2 ",
"   c #1C5873",
".  c #1B5E7B",
"X  c #235D76",
"o  c #1A607E",
"O  c #24607A",
"+  c #2B637C",
"@  c #176686",
"#  c #196382",
"$  c #166A8C",
"%  c #136E93",
"&  c #1B6F91",
"*  c #0F779F",
"=  c #137196",
"-  c #11749B",
";  c #206A88",
":  c #336981",
">  c #2C708C",
",  c #3E7187",
"<  c #3E7289",
"1  c #227190",
"2  c #2A7A9A",
"3  c #3C7D98",
"4  c #0F77A0",
"5  c #0E7AA4",
"6  c #0C7EAB",
"7  c #137DA5",
"8  c #1D7DA3",
"9  c #43758A",
"0  c #4C7B8F",
"q  c #4D7D92",
"w  c #427D95",
"e  c #517F93",
"r  c #1984AD",
"t  c #0A85B3",
"y  c #0F89B7",
"u  c #0987B8",
"i  c #078BBD",
"p  c #0989BA",
"a  c #1E93BF",
"s  c #2880A2",
"d  c #2F86A8",
"f  c #2585AA",
"g  c #3E88A5",
"h  c #368CAD",
"j  c #3987A6",
"k  c #268DB4",
"l  c #3095BB",
"z  c #3A94B6",
"x  c #4D8197",
"c  c #4A849C",
"v  c #528093",
"b  c #598597",
"n  c #598598",
"m  c #5E8A9D",
"M  c #628B9D",
"N  c #4084A0",
"B  c #418BA8",
"V  c #4B8EA8",
"C  c #598DA3",
"Z  c #439CBE",
"A  c #4899B8",
"S  c #4996B4",
"D  c #5298B3",
"F  c #5D9CB4",
"G  c #5395B0",
"H  c #6299AF",
"J  c #6994A6",
"K  c #729BAD",
"L  c #6C9EB3",
"P  c #5DA3BE",
"I  c #65A0B7",
"U  c #60A5BF",
"Y  c #6EA8BF",
"T  c #71A6BB",
"R  c #0590C4",
"E  c #0394CA",
"W  c #0298CF",
"Q  c #1B93C0",
"!  c #0197D0",
"~  c #009AD4",
"^  c #139CD0",
"/  c #2098C5",
"(  c #3E9FC4",
")  c #30A1CC",
"_  c #2CA6D3",
"`  c #3BA9D2",
"'  c #4FA1C1",
"]  c #42A7CC",
"[  c #4EABCE",
"{  c #51A8C9",
"}  c #5EACC9",
"|  c #4AAFD5",
" . c #42ADD4",
".. c #60A8C3",
"X. c #6EAEC6",
"o. c #7BAFC4",
"O. c #76ADC2",
"+. c #64B0CC",
"@. c #78B0C5",
"#. c #73B4CC",
"$. c #7DB6CC",
"%. c #64B5D3",
"&. c #6FB7D2",
"*. c #70BAD6",
"=. c #78B8D0",
"-. c #88A7B5",
";. c #8CADBB",
":. c #83A4B2",
">. c #93B0BC",
",. c #84AFC1",
"<. c #89B5C7",
"1. c #83B7CA",
"2. c #9DB9C5",
"3. c #97BAC8",
"4. c #8CBFD2",
"5. c #A3BDC8",
"6. c #9DC1CF",
"7. c #88C5DC",
"8. c #82C4DC",
"9. c #9CC5D5",
"0. c #9ACBDE",
"q. c #A5C1CC",
"w. c #B1C6CE",
"e. c #A0C3D1",
"r. c #AECBD6",
"t. c #A9CDDA",
"y. c #B6C9D2",
"u. c #BBCDD5",
"i. c #B2CDD8",
"p. c #AAD0DF",
"a. c #BDD5DE",
"s. c #B5D0DA",
"d. c #92CFE5",
"f. c #96D1E7",
"g. c #A3D0E0",
"h. c #AED4E3",
"j. c #ACD9EA",
"k. c #A3D8EC",
"l. c #B5D6E2",
"z. c #BCD7E1",
"x. c #B0D8E7",
"c. c #BBDAE6",
"v. c #B1DEEF",
"b. c #B9DEEB",
"n. c #BBE1EF",
"m. c #C0D0D7",
"M. c #C2D5DD",
"N. c #C8D6DC",
"B. c #C3DCE5",
"V. c #CCDCE2",
"C. c #C7DFE9",
"Z. c #D1DEE3",
"A. c #C6E1EB",
"S. c #CDE2EA",
"D. c #D4E1E6",
"F. c #D8E3E7",
"G. c #D5E6EC",
"H. c #D9E5EA",
"J. c #D5E8EE",
"K. c #DBE9EE",
"L. c #C0E3F0",
"P. c #CCE7F1",
"I. c #D5EBF2",
"U. c #D9EBF2",
"Y. c #DEF0F7",
"T. c #E3EBEE",
"R. c #E3EEF3",
"E. c #E9EFF2",
"W. c #E5F2F7",
"Q. c #EBF3F6",
"!. c #EAF6FA",
"~. c #E5F4F9",
"^. c #F0F5F6",
"/. c #F3F7F9",
"(. c #F5F9FB",
"). c #FFFFFF",
"_. c None",
/* pixels */
"_._._._._._._._._._._._._.~ ~ ~ ~ ~ ~ _._._._._._._._._._._._._.",
"_._._._._._._._._._.~ ~ ~ ~ ~ ~ ~ ~ ~ ~ ~ ~ _._._._._._._._._._.",
"_._._._._._._._.~ ~ ~ ~ i 6 5 * - 4 6 i ! ~ ~ ~ _._._._._._._._.",
"_._._._._._.~ ~ ~ E t h $.l.I.Q.Q.K.l.<.g 6 E ~ ~ ~ _._._._._._.",
"_._._._._.~ ~ ~ i ' A.).).).).!.).).).).).S.F t ~ ~ ~ _._._._._.",
"_._._._.~ ~ ~ Q x.).).).).).d.R  .k.I.).).).).z.k ! ~ ~ _._._._.",
"_._._.~ ~ ~ ) W.).).).).).).I.!.!.U.).).).).).).Q.Z ~ ~ ~ _._._.",
"_._._.W ! _ !.).).).).).).).I.] x.).).).U.| f.!.(.^.( W ~ _._._.",
"_._.E E ^ Y.).).h.0.(.).).).).p p 8.).).W.n.n.n.).).Q.Q E E _._.",
"_._.R R k.).).).Z +.+.g.(.).).y u *.).).P.%.I.).).).).z.R R R _.",
"_.i i ` ).).).).W.).).).).).Q.t &.(.).).W.p [ ).).).).).{ i i _.",
"_.p p v.).).).).B...(.).).).R.I.).).).).(.t 8.).).).).).A.p p _.",
"_.t a ).).).).).!.7 A (.).).J.S.).).).).(.b.).).).).).).).l t t ",
"6 6 %.).).).).).(.* - P ).).J.5 z c.).)./.k &.).).).).).).=.6 6 ",
"5 5 0.).).).).)./.= - * l.).).7 5 5 p.).).r 6 h.).).).).).h.5 5 ",
"* * c.).).).).).K.% = = D ).).8 * * #.).).7 5 A.).).).).).S.* * ",
"= - A.).).).).).G.I D g d ).).- = d R.).J.f 4.).).).).(.R.K.= - ",
"= % z.).).).V.i.S.Q.).).).).G.= Y Q.).).).).Q.B.9.X.A 1.(.B.% = ",
"$ $ 6.).).).B.# @ @ 1 c H (.J.K.).).B.o.D s - - - P J.).Q.h $ % ",
"@ $ L ).).).).M.; @ @ @ @ H r.s.a.9.2 % % = = - t.).).J.h V @ @ ",
"_.# > ).).).).).C # # # @ @ @ @ @ $ $ $ $ % & e.).K.o.- @.3 # _.",
"_.. o y.).).Z.q . . . # # # # @ @ @ $ $ $ $ 2 T g % % F N.. . _.",
"_.    x ).a.X .   . . . . o o o # # @ @ $ $ $ $ @ & <.).m .   _.",
"_._.    >.+       O J ;.2.3.;.K w # # # # @ @ 3 ,.R.Q.u.    _._.",
"_._._.          ;./.).(.F.F.^.).).).T.D.V.H./.)./.3.N.:   _._._.",
"_._._.        5.).Q.M X       , K 2.u.V.Z.M.q.K c N.0     _._._.",
"_._._._.    X T.).m e b e 9 +         . . X x 5.R.q     _._._._.",
"_._._._._.  X + w.).).).).).).^.Z.u.y.u.V.(.).m.:     _._._._._.",
"_._._._._._.      b N.).).).).).).).).).).V.M       _._._._._._.",
"_._._._._._._._.      , :.y.F.T.E.F.u.-.9       _._._._._._._._.",
"_._._._._._._._._._.                          _._._._._._._._._.",
"_._._._._._._._._._._._._.            _._._._._._._._._._._._._."
};
