/* XPM */
static char *result[] = {
/* columns rows colors chars-per-pixel */
"16 16 151 2 ",
"   c #1C5872",
".  c #1E5B75",
"X  c #1F5D78",
"o  c #19617F",
"O  c #28627B",
"+  c #2B637B",
"@  c #2E657D",
"#  c #2D657E",
"$  c #176686",
"%  c #196281",
"&  c #186484",
"*  c #196787",
"=  c #166889",
"-  c #16698B",
";  c #156A8C",
":  c #156B8E",
">  c #127196",
",  c #117399",
"<  c #127399",
"1  c #246A87",
"2  c #296B87",
"3  c #206E8E",
"4  c #24708F",
"5  c #3F7287",
"6  c #287E9F",
"7  c #0F78A1",
"8  c #0F79A2",
"9  c #497E95",
"0  c #0B81AE",
"q  c #0889BA",
"w  c #138EBD",
"e  c #3F8CAA",
"r  c #4B839B",
"t  c #548195",
"y  c #598598",
"u  c #608A9C",
"i  c #5B8DA2",
"p  c #5494AE",
"a  c #5E9CB5",
"s  c #6A93A4",
"d  c #6598AD",
"f  c #7197A7",
"g  c #799DAC",
"h  c #669DB4",
"j  c #67A6BE",
"k  c #6AA7BE",
"l  c #7FA4B3",
"z  c #7EA6B6",
"x  c #74A5B9",
"c  c #0492C6",
"v  c #0492C7",
"b  c #0A95CA",
"n  c #0798CE",
"m  c #1090C0",
"M  c #109ACE",
"N  c #0198D1",
"B  c #0199D2",
"V  c #009AD4",
"C  c #0C9CD2",
"Z  c #3FA7CE",
"A  c #41A4C9",
"S  c #4AA7CA",
"D  c #54A4C3",
"F  c #51A5C6",
"G  c #64ACC7",
"H  c #6BABC4",
"J  c #7CB1C5",
"K  c #7EB2C6",
"L  c #79B2C9",
"P  c #78B3CA",
"I  c #7BBBD3",
"U  c #7ABED8",
"Y  c #88A8B5",
"T  c #8CAAB7",
"R  c #8EACB8",
"E  c #93B0BC",
"W  c #81B7CC",
"Q  c #8AB7C9",
"!  c #86B9CD",
"~  c #9FB8C3",
"^  c #8BBDD0",
"/  c #89BED2",
"(  c #8ABFD4",
")  c #A0B9C4",
"_  c #A4BCC7",
"`  c #81C1D9",
"'  c #85C4DB",
"]  c #A7C4CF",
"[  c #AAC0CA",
"{  c #ACC4CE",
"}  c #A6C4D0",
"|  c #A4C8D6",
" . c #A2CCDC",
".. c #AFD2DF",
"X. c #9FD1E3",
"o. c #A9D3E2",
"O. c #ABD5E4",
"+. c #A0D5E9",
"@. c #A4D9EC",
"#. c #B0D6E5",
"$. c #BED6E0",
"%. c #B0D8E7",
"&. c #BEDAE5",
"*. c #BCDBE6",
"=. c #B2DBEA",
"-. c #B5DBEA",
";. c #B5DDEB",
":. c #BFDEEA",
">. c #BAE1EF",
",. c #BFE2EF",
"<. c #C3D3D9",
"1. c #C3D4DB",
"2. c #C2D5DD",
"3. c #C7D7DE",
"4. c #C2D7E0",
"5. c #C6DBE3",
"6. c #C0DAE4",
"7. c #C1DCE7",
"8. c #CEDBE0",
"9. c #CBDDE4",
"0. c #CFDEE4",
"q. c #C2DDE8",
"w. c #C5DFE9",
"e. c #D0DCE2",
"r. c #D0DEE3",
"t. c #C7E0E9",
"y. c #CBE0E8",
"u. c #CEE4EC",
"i. c #D7E5EB",
"p. c #DCE5E9",
"a. c #DEEAEE",
"s. c #C8E7F2",
"d. c #D5E9F1",
"f. c #D4ECF4",
"g. c #D9ECF3",
"h. c #DAECF3",
"j. c #DFECF0",
"k. c #DEEDF3",
"l. c #DCEFF6",
"z. c #DEF1F7",
"x. c #E2EDF2",
"c. c #EAF3F6",
"v. c #F0F4F6",
"b. c #F1F4F6",
"n. c #F3F7F9",
"m. c #F0F8FA",
"M. c #F5FBFD",
"N. c #F8FBFC",
"B. c #FDFEFE",
"V. c white",
"C. c None",
/* pixels */
"C.C.C.C.C.C.V V V V C.C.C.C.C.C.",
"C.C.C.C.B m F P L D w N C.C.C.C.",
"C.C.V n ` m.V.+.>.M.n./ b V C.C.",
"C.C.C ,.V.V.V.;.l.V.s.z.w.M N C.",
"C.v @.V.I :.B.' A V.=.f.V.%.c C.",
"q Z V.V.q.B.V.O.g.V.U -.V.V.S q ",
"0 X.V.V.W H V. .*.V.#.h.V.V.o.0 ",
"8 d.V.V.J , 6.^ 7 t.( G V.V.k.8 ",
"> x.V.a.$.| y.K j N.&.u.7...j.> ",
"- 4.V.} * 4 x 5.i.a 6 < ! c.k - ",
"o z V.3.2 % & $ = ; : p Q e d o ",
"C.O ~ . X 9 i r 1 & $ 3 h 9.# C.",
"C.    5 p.) g E 1.r.0.2.] y   C.",
"C.C.  t <.[ _ R f s l { u   C.C.",
"C.C.C.  + Y 8.v.b.e.T @   C.C.C.",
"C.C.C.C.C.            C.C.C.C.C."
};
