/* XPM */
static char *result[] = {
/* columns rows colors chars-per-pixel */
"64 64 198 2 ",
"   c #1C5873",
".  c #1B5E7B",
"X  c #225C76",
"o  c #1A607F",
"O  c #2A627A",
"+  c #27657F",
"@  c #31677F",
"#  c #176586",
"$  c #186382",
"%  c #176788",
"&  c #16698B",
"*  c #1D6D8E",
"=  c #1B6887",
"-  c #136E92",
";  c #1A6E90",
":  c #137196",
">  c #197296",
",  c #11749B",
"<  c #1E7A9E",
"1  c #16799F",
"2  c #236682",
"3  c #2A6A85",
"4  c #3A6E84",
"5  c #36728B",
"6  c #3C748D",
"7  c #3D7086",
"8  c #267A9C",
"9  c #2A7A9A",
"0  c #237495",
"q  c #377A95",
"w  c #0E7AA3",
"e  c #0C7EAA",
"r  c #0F77A0",
"t  c #1077A0",
"y  c #127AA3",
"u  c #187DA5",
"i  c #44758B",
"p  c #41788F",
"a  c #4B7E94",
"s  c #3D829D",
"d  c #0B81AD",
"f  c #1E80A6",
"g  c #1B83AB",
"h  c #0A85B3",
"j  c #078CBE",
"k  c #0889BA",
"l  c #1288B5",
"z  c #178BB7",
"x  c #2581A5",
"c  c #2B82A4",
"v  c #2184AA",
"b  c #2B86AA",
"n  c #3C89A7",
"m  c #3686A5",
"M  c #2D8DB1",
"N  c #2189B0",
"B  c #318FB3",
"V  c #2B92B9",
"C  c #2892B9",
"Z  c #3796BA",
"A  c #598597",
"S  c #5D899C",
"D  c #558498",
"F  c #45849D",
"G  c #618B9D",
"H  c #418BA8",
"J  c #528CA4",
"K  c #5F8DA0",
"L  c #5391AA",
"P  c #5C93AA",
"I  c #4797B6",
"U  c #4B99B7",
"Y  c #5A9FBA",
"T  c #559CB7",
"R  c #668EA0",
"E  c #6C93A3",
"W  c #6593A6",
"Q  c #7196A6",
"!  c #7B9FAD",
"~  c #769AA9",
"^  c #639DB4",
"/  c #6A9FB4",
"(  c #5BA1BC",
")  c #7EA1AF",
"_  c #6AA1B7",
"`  c #68A3B9",
"'  c #72A6BA",
"]  c #79AABD",
"[  c #75A7BA",
"{  c #068FC2",
"}  c #0491C5",
"|  c #0C93C5",
" . c #0395CB",
".. c #0198CF",
"X. c #009AD4",
"o. c #129DD0",
"O. c #1195C6",
"+. c #2798C2",
"@. c #369BC1",
"#. c #34A9D4",
"$. c #2EA7D3",
"%. c #4CA4C5",
"&. c #4DA7C9",
"*. c #55ACCC",
"=. c #59A8C5",
"-. c #42ACD3",
";. c #51AED0",
":. c #52B2D5",
">. c #5BB3D3",
",. c #44B0D7",
"<. c #68AAC4",
"1. c #75AEC4",
"2. c #6DB2CC",
"3. c #74B4CB",
"4. c #7DB2C6",
"5. c #65BBDB",
"6. c #7CBBD2",
"7. c #71BDDA",
"8. c #74C3DF",
"9. c #7CC6E0",
"0. c #83A5B3",
"q. c #81AABB",
"w. c #8FACB9",
"e. c #87A8B6",
"r. c #92AFBB",
"t. c #94B1BD",
"y. c #89B7C9",
"u. c #8BB9CB",
"i. c #84B5C8",
"p. c #92BBCB",
"a. c #9CBCCA",
"s. c #97B6C3",
"d. c #8CBED1",
"f. c #83BED4",
"g. c #91BFD1",
"h. c #A2BBC6",
"j. c #A4BEC9",
"k. c #88C2D7",
"l. c #86C4DB",
"z. c #95C3D4",
"x. c #9DC4D3",
"c. c #9BCBDD",
"v. c #94C8DB",
"b. c #A5C2CE",
"n. c #ABC2CC",
"m. c #B1C5CE",
"M. c #A1C5D3",
"N. c #ABC6D1",
"B. c #AECBD6",
"V. c #A3CCDB",
"C. c #ACCDDA",
"Z. c #B4CAD2",
"A. c #BBCDD4",
"S. c #ADD0DE",
"D. c #B5D2DD",
"F. c #BBD1D9",
"G. c #87CAE2",
"H. c #98CFE3",
"J. c #9AD3E8",
"K. c #ACD5E4",
"L. c #ADD9E9",
"P. c #A3D5E7",
"I. c #BCD7E1",
"U. c #BBDAE5",
"Y. c #B1DBEA",
"T. c #B8DAE5",
"R. c #BDE1EE",
"E. c #C3D4DB",
"W. c #C8D7DD",
"Q. c #CCDADF",
"!. c #C4DBE4",
"~. c #CDDDE3",
"^. c #C3DFE9",
"/. c #D1DDE2",
"(. c #C2E2ED",
"). c #CDE4EC",
"_. c #D4E1E6",
"`. c #D9E3E7",
"'. c #D3E4EB",
"]. c #DEE9ED",
"[. c #DAE7EB",
"{. c #C8E7F2",
"}. c #C7E6F1",
"|. c #D2EAF2",
" X c #DAECF3",
".X c #DEF1F7",
"XX c #E3EAED",
"oX c #E3EEF1",
"OX c #E9EFF1",
"+X c #E4F1F5",
"@X c #EDF3F6",
"#X c #EDF6F9",
"$X c #E9F6FA",
"%X c #F1F5F7",
"&X c #F2F7F8",
"*X c #F4F9FA",
"=X c #FFFFFF",
"-X c None",
/* pixels */
"-X-X-X-X-X-X-X-X-X-X-X-X-X-X-X-X-X-X-X-X-X-X-X-X-X-X-X-X-X-XX.X.X.X.-X-X-X-X-X-X-X-X-X-X-X-X-X-X-X-X-X-X-X-X-X-X-X-X-X-X-X-X-X-X",
"-X-X-X-X-X-X-X-X-X-X-X-X-X-X-X-X-X-X-X-X-X-X-X-XX.X.X.X.X.X.X.X.X.X.X.X.X.X.X.X.-X-X-X-X-X-X-X-X-X-X-X-X-X-X-X-X-X-X-X-X-X-X-X-X",
"-X-X-X-X-X-X-X-X-X-X-X-X-X-X-X-X-X-X-X-X-XX.X.X.X.X.X.X.X.X.X.X.X.X.X.X.X.X.X.X.X.X.X.-X-X-X-X-X-X-X-X-X-X-X-X-X-X-X-X-X-X-X-X-X",
"-X-X-X-X-X-X-X-X-X-X-X-X-X-X-X-X-X-XX.X.X.X.X.X.X.X.X.X.X.X.X.X.X.X.X.X.X.X.X.X.X.X.X.X.X.X.-X-X-X-X-X-X-X-X-X-X-X-X-X-X-X-X-X-X",
"-X-X-X-X-X-X-X-X-X-X-X-X-X-X-X-XX.X.X.X.X.X.X.X.X.X...} k h e w w e h k  .X.X.X.X.X.X.X.X.X.X.-X-X-X-X-X-X-X-X-X-X-X-X-X-X-X-X-X",
"-X-X-X-X-X-X-X-X-X-X-X-X-X-X-XX.X.X.X.X.X.X.X.} h , # # & - - - - - & & % # : e } X.X.X.X.X.X.X.X.-X-X-X-X-X-X-X-X-X-X-X-X-X-X-X",
"-X-X-X-X-X-X-X-X-X-X-X-X-XX.X.X.X.X.X.X.X.h , & , g %.6.V.U.). X X'.!.V.y.Y 9 - & - h ..X.X.X.X.X.X.X.-X-X-X-X-X-X-X-X-X-X-X-X-X",
"-X-X-X-X-X-X-X-X-X-X-X-XX.X.X.X.X.X.X.h , t V f.).=X=X=X=X=X=X=X=X=X=X=X=X=X=X[.p.H - - d X.X.X.X.X.X.X.-X-X-X-X-X-X-X-X-X-X-X-X",
"-X-X-X-X-X-X-X-X-X-X-XX.X.X.X.X.X.{ r w *.U.=X=X=X=X=X=X=X=X=X=X=X=X=X=X=X=X=X=X=X=X'.` : , k X.X.X.X.X.X.-X-X-X-X-X-X-X-X-X-X-X",
"-X-X-X-X-X-X-X-X-X-XX.X.X.X.X.X.h e &.|.=X=X=X=X=X=X=X=X=X=X X|.=X=X=X=X=X=X=X=X=X=X=X=XXX_ : e ..X.X.X.X.X.-X-X-X-X-X-X-X-X-X-X",
"-X-X-X-X-X-X-X-X-XX.X.X.X.X. .h C L.=X=X=X=X=X=X=X=X=X=X*X,.}  .#.{.=X=X=X=X=X=X=X=X=X=X=X=X~.n e { X.X.X.X.X.-X-X-X-X-X-X-X-X-X",
"-X-X-X-X-X-X-X-XX.X.X.X.X. .h *.#X=X=X=X=X=X=X=X=X=X=X=X=XO.} } | | #.5.8.$X=X=X=X=X=X=X=X=X=X*X] w } X.X.X.X.X.-X-X-X-X-X-X-X-X",
"-X-X-X-X-X-X-XX.X.X.X.X. .k G.=X=X=X=X=X=X=X=X=X=X=X=X=X=X>.R.#X.X}.Y.}.=X=X=X=X=X=X=X=X=X=X=X=X=XB.u { X.X.X.X.X.-X-X-X-X-X-X-X",
"-X-X-X-X-X-XX.X.X.X.X. .| K.=X=X=X=X=X=X=X=X=X=X=X=X=X=X=X=X=X=X=X=X=X=X=X=X=X=X=X=X=X=X=X=X=X=X=X=X~.u  .X.X.X.X.X.-X-X-X-X-X-X",
"-X-X-X-X-X-X..X.X.X.X.| Y.=X=X=X=X=X=X=X=X=X=X=X=X=X=X=X=Xl.;.L.*X=X=X=X=X=X=X=X=X*XJ.G. X=X=X=X=X=X=X~.g  ...X.X.X...-X-X-X-X-X",
"-X-X-X-X-X ..... ... .P.=X=X=X=X=X=X=X=X=X=X=X=X=X=X=X=X=X(.j j +.J.=X=X=X=X=X=X=X7.} } | 9.{.{. X=X=X=XQ.l ..X. . .X.-X-X-X-X-X",
"-X-X-X-X . .}  . .X.9.=X=X=X=X=X=X=X=X=X=X=X=X=X=X=X=X=X=X#Xj k k k >.=X=X=X=X=X=XG.:.H.G.5.5.P.=X=X=X=X=XN.{  . . . . .-X-X-X-X",
"-X-X-X-X}  . .}  .,.=X=X=X=X=X=Xv.C l *.oX=X=X=X=X=X=X=X=X=Xz k k k k K.=X=X=X=X=X*X=X=X=X=X=X=X=X=X=X=X=X=X'  .}  . .} -X-X-X-X",
"-X-X-X} } } } } o.+X=X=X=X=X=X=XZ d d d l 2.c.k. X=X=X=X=X=Xz k k k k H.=X=X=X=X=X(.L.|.=X=X=X=X=X=X=X=X=X=X*XV } } } } } -X-X-X",
"-X-X-X| { } {  .J.=X=X=X=X=X=X=X=.6.T.K.v.f.k. X=X=X=X=X=X=Xl h h h +.*X=X=X=X=X=X7.j k >.=X=X=X=X=X=X=X=X=X=XE.{ { { } { -X-X-X",
"-X-Xj j j { { #.=X=X=X=X=X=X=X=X*X=X=X=X=X=X=X=X=X=X=X=X=X$Xh h h @.+X=X=X=X=X=X=XY.k k k P.=X=X=X=X=X=X=X=X=X=X=.} j j j { -X-X",
"-X-Xj j k k  .Y.=X=X=X=X=X=X=X=X=XS.=X=X=X=X=X=X=X=X=X=X=XT.d l l.*X=X=X=X=X=X=X=X Xh k k l.=X=X=X=X=X=X=X=X=X=X`.k k j k k -X-X",
"-X-Xj k k k $.=X=X=X=X=X=X=X=X=X=X<.( #X=X=X=X=X=X=X=X=X=Xk.6.+X=X=X=X=X=X=X=X=X=X$Xh k k (.=X=X=X=X=X=X=X=X=X=X=X=.k k k k -X-X",
"-Xh h h h j J.=X=X=X=X=X=X=X=X=X=Xc.w M  X=X=X=X=X=X=X=X=X=X=X=X=X=X=X=X=X=X=X=X=X+Xh h *.=X=X=X=X=X=X=X=X=X=X=X=XW.j h h k h -X",
"-Xh h h h O.&X=X=X=X=X=X=X=X=X=X=X).w w v ).=X=X=X=X=X=X=X=X=X=X=X=X=X=X=X=X=X=X=X).&.c.=X=X=X=X=X=X=X=X=X=X=X=X=X=XV h h h h -X",
"-Xh h d h :.=X=X=X=X=X=X=X=X=X=X=XoXr r r v [.=X=X=X=X=X=X<.2.^.=X=X=X=X=X=X=X=X=X=X=X=X=X=X=X=X=X=X=X=X=X=X=X=X=X=X6.h d h h -X",
"-Xd d d d J.=X=X=X=X=X=X=X=X=X=X=X*Xr , t w b #X=X=X=X=X=Xz.e w M c.*X=X=X=X=X=X=X).B %.v.*X=X=X=X=X=X=X=X=X=X=X=X=X!.h d d e -X",
"-Xe e e h .X=X=X=X=X=X=X=X=X=X=X=X*X, , t , , Y =X=X=X=X=X).w y w w M ^.=X=X=X=X=X*Xd d d Z $X=X=X=X=X=X=X=X=X=X=X=X*Xg e e e -X",
"w e w e z =X=X=X=X=X=X=X=X=X=X=X=X&X, , , , , , S.=X=X=X=X*Xy t w w w t V.=X=X=X=X=Xg d d d 6.=X=X=X=X=X=X=X=X=X=X=X=XI y e w w ",
"w w w w %.=X=X=X=X=X=X=X=X=X=X=X=X X, : , , , , b =X=X=X=X=Xu r w t w w g #X=X=X=X=XM d e e Z =X=X=X=X=X=X=X=X=X=X=X=X2.w w w w ",
"w w w w 2.=X=X=X=X=X=X=X=X=X=X=X=X!.: : : , : , , S.=X=X=X=Xb r 1 w w w t U.=X=X=X=XN w y e =.=X=X=X=X=X=X=X=X=X=X=X=Xz.r w w w ",
", , , , f.=X=X=X=X=X=X=X=X=X=X=X=XM.: - : : : , : ` =X=X=X=Xc r r , r , u @X=X=X=X*Xy w w y U.=X=X=X=X=X=X=X=X=X=X=X=XS., w , , ",
", , , , z.=X=X=X=X=X=X=X=X=X=X=X=X] - - - - : - , 8 =X=X=X=X< , , , r , g.=X=X=X=X!.w w w 3.=X=X=X=X=X=X=X=X=X=X=X=X=XI., , , , ",
": , : : z.=X=X=X=X=X=X=X=X=X=X=X=X].I.B.x.y.1.` T H *X=X=X@X: : : , , u.=X=X=X=X=Xu.b U S.=X=X=X=X=X=X=X=X=X=X[.B.@X=XI., : : , ",
": : : : y.=X=X=X=X=X=X=X=X=X=X=X=X=X=X=X=X=X=X=X=X=X=X=X=X!.: , : c D.=X=X=X=X=X=X=X=X=X=X=X=X=X=X=X+XT.u.T v I '.=X=XC.- : : : ",
"- - - - ' =X=X=X=X=X=X=X#Xq L ' u.B.~.@X=X=X=X=X=X=X=X=X=Xu.: 0 i.*X=X=X=X=X=X=X=X=X=X=X#X!.x.1.I u w r r v V.=X=X=X=X` - - - - ",
"-X- & - L =X=X=X=X=X=X=X=XP # % % & % & * s P ] p.D.=X=X=X^ u.#X=X=X=X=X=X=X*X'.V.4.T x , , r , , , 1 1 <.#X=X=X=X=XV.: & - - -X",
"-X& & & 0 =X=X=X=X=X=X=X=XZ.# # # # % % % & & & % * %X=X=X=X=X=X=X=X=X=X'.m : - : : : : : , , , , , 1. X=X=X=X=X=XI.y 8 & & & -X",
"-X% & & & ].=X=X=X=X=X=X=X*Xb.P $ % $ % % % % & & & ^ @X=X=X=X=X=X=X=X*X^ - - : : : : : : , : , u I.=X=X=X=X=X=Xc.1 Y * % & & -X",
"-X# # # # b.=X=X=X=X=X=X=X=X=X=Xq $ # $ $ # # # # % # * J / / _ ] ] ^ 9 - - - - - - - : : : : < '.=X=X=X=X=X#X` , 1 M.# # # # -X",
"-X$ $ # $ P =X=X=X=X=X=X=X=X=X=Xq.o $ $ $ # $ # # # # # & # % & & & & & & - & - - - - - : - > !.=X=X=X=X=Xx.8 , , y.q.$ $ $ $ -X",
"-X-Xo $ $ 2 %X=X=X=X=X=X=X=X=X=XZ.o o o $ $ $ $ $ # # # # # % & % & & & & * & - & & - - - - M.=X=X=XoXu.9 , , , U *Xq $ $ o -X-X",
"-X-X. o . o j.=X=X=X=X=X=X=XA.a o o o o o o $ $ $ $ $ # # # # # # % % % % & & & & & & & & ` +XD.i.n - : : : - n #XW.. . . o -X-X",
"-X-X. . . . 6 =X=X=X=X=X@XS . . . . . o o o o o o $ $ $ $ $ # $ # # # % % % % % & - & & & > & & - & - - - - n @X=XR . . . . -X-X",
"-X-X-X.   .   A.=X=X=XXX7 o   o . . . . . . . o o o o o $ $ $ $ $ # # # # # # # % & & & & & & & & & - - - ^ &X=X[.. .   . -X-X-X",
"-X-X-X    .   i =X=XOX@             . . . . . . . o o o o o o $ $ $ $ $ # $ # # # # % # % % & & & & & 9 B.=X=X=XR         -X-X-X",
"-X-X-X-X        h.*XD                     . . + 5 6 6 5 2 . o o o $ $ # $ $ $ $ # # # # # % % = & q a.*X=X=X=XE.        -X-X-X-X",
"-X-X-X-X        O e.                  D t.W.@X=X=X=X=X=X=X%X`.n.e.D 3 $ o $ $ $ $ $ $ # # = F ] !.=X=X=X_.XX&X4         -X-X-X-X",
"-X-X-X-X-X                        E `.=X=X=X=X=X=X=X=X=X=X=X=X=X=X=X=X@X_.F.n.a.a.a.N.F.`.*X=X=X=X=X=XB.q.=X~         -X-X-X-X-X",
"-X-X-X-X-X                    X m.=X=X=X=X=X=X_.m.j.n.m./.*X=X=X=X=X=X=X=X=X=X=X=X=X=X=X=X=X=X=X=X_.P J =Xj.          -X-X-X-X-X",
"-X-X-X-X-X-X                X Q.=X=X=X=XOX) O               i ) Z.XX=X=X=X=X=X=X=X=X=X=X=X=XoXb.J $ W *XE.X         -X-X-X-X-X-X",
"-X-X-X-X-X-X-X              h.=X=X=X=XA.O                           2 D Q e.t.h.j.h.t.] W 5 o o 2 s.=X~.O         -X-X-X-X-X-X-X",
"-X-X-X-X-X-X-X-X          @ =X=X=X=XE.X                               . .   . . . . .   . o + ) oX=XW.O         -X-X-X-X-X-X-X-X",
"-X-X-X-X-X-X-X-X-X          r.=X=X*Xi A ! w.t.t.w.0.Q A i O           X           . . + S h.#X=X=Xn.X         -X-X-X-X-X-X-X-X-X",
"-X-X-X-X-X-X-X-X-X            G %X%X%X=X=X=X=X=X=X=X=X=X=X=X%X/.m.w.! Q E E Q ) t.n._.=X=X=X=X*X!             -X-X-X-X-X-X-X-X-X",
"-X-X-X-X-X-X-X-X-X-X-X          @ m.=X=X=X=X=X=X=X=X=X=X=X=X=X=X=X=X=X=X=X=X=X=X=X=X=X=X=X=XW.4           -X-X-X-X-X-X-X-X-X-X-X",
"-X-X-X-X-X-X-X-X-X-X-X-X            A /.=X=X=X=X=X=X=X=X=X=X=X=X=X=X=X=X=X=X=X=X=X=X=X=XXXE             -X-X-X-X-X-X-X-X-X-X-X-X",
"-X-X-X-X-X-X-X-X-X-X-X-X-X              A E.=X=X=X=X=X=X=X=X=X=X=X=X=X=X=X=X=X=X=X=X/.E X             -X-X-X-X-X-X-X-X-X-X-X-X-X",
"-X-X-X-X-X-X-X-X-X-X-X-X-X-X                4 0.Q.=X=X=X=X=X=X=X=X=X=X=X=X=X=X_.r.i                 -X-X-X-X-X-X-X-X-X-X-X-X-X-X",
"-X-X-X-X-X-X-X-X-X-X-X-X-X-X-X-X                  O A 0.h.A.Q./.`./.E.j.e.G @                   -X-X-X-X-X-X-X-X-X-X-X-X-X-X-X-X",
"-X-X-X-X-X-X-X-X-X-X-X-X-X-X-X-X-X-X                                                        -X-X-X-X-X-X-X-X-X-X-X-X-X-X-X-X-X-X",
"-X-X-X-X-X-X-X-X-X-X-X-X-X-X-X-X-X-X-X-X                                                -X-X-X-X-X-X-X-X-X-X-X-X-X-X-X-X-X-X-X-X",
"-X-X-X-X-X-X-X-X-X-X-X-X-X-X-X-X-X-X-X-X-X-X-X                                    -X-X-X-X-X-X-X-X-X-X-X-X-X-X-X-X-X-X-X-X-X-X-X",
"-X-X-X-X-X-X-X-X-X-X-X-X-X-X-X-X-X-X-X-X-X-X-X-X-X-X-X-X                -X-X-X-X-X-X-X-X-X-X-X-X-X-X-X-X-X-X-X-X-X-X-X-X-X-X-X-X"
};
